<svg xmlns="http://www.w3.org/2000/svg" width="370" height="200" viewBox="0 0 370 200" role="img" aria-label="orbit"><g transform="translate(42.00 42.00) scale(1.1600)"><path d="M 82.61 44.95 A 33 33 0 1 1 55.05 17.39" fill="none" stroke="#EDEDF0" stroke-width="10" stroke-linecap="round"/><circle cx="50" cy="50" r="8.5" fill="#EDEDF0"/><circle cx="73.33" cy="26.67" r="10.5" fill="#6E9FFF"/></g><path fill="#EDEDF0" d="M219.66 122.02Q215.1 122.02 211.68 119.97Q208.25 117.92 206.37 114.15Q204.5 110.39 204.5 105.34Q204.5 100.24 206.37 96.51Q208.25 92.78 211.68 90.72Q215.1 88.66 219.66 88.66Q224.22 88.66 227.63 90.72Q231.03 92.78 232.91 96.51Q234.78 100.24 234.78 105.34Q234.78 110.39 232.91 114.15Q231.03 117.92 227.63 119.97Q224.22 122.02 219.66 122.02ZM219.66 116.51Q223.71 116.51 225.94 113.55Q228.17 110.58 228.17 105.34Q228.17 100.11 225.94 97.14Q223.71 94.17 219.66 94.17Q215.62 94.17 213.36 97.14Q211.11 100.11 211.11 105.34Q211.11 110.58 213.36 113.55Q215.62 116.51 219.66 116.51ZM240.19 121.3V89.38H246L246.26 97.85L245.71 97.68Q246.37 93.34 248.38 91.36Q250.38 89.38 253.79 89.38H256.84V95.07H253.81Q251.38 95.07 249.77 95.87Q248.17 96.66 247.36 98.28Q246.55 99.9 246.55 102.47V121.3ZM277.04 122.02Q273.72 122.02 271.17 120.56Q268.63 119.1 267.25 116.52L267.07 121.3H261.15V78.7H267.51V93.87Q268.75 91.79 271.24 90.23Q273.74 88.66 277.04 88.66Q281.2 88.66 284.25 90.71Q287.29 92.76 288.96 96.5Q290.62 100.24 290.62 105.34Q290.62 110.44 288.96 114.18Q287.29 117.92 284.25 119.97Q281.2 122.02 277.04 122.02ZM276.01 116.51Q279.68 116.51 281.85 113.52Q284.01 110.54 284.01 105.34Q284.01 100.1 281.86 97.13Q279.7 94.17 276.1 94.17Q273.4 94.17 271.47 95.49Q269.54 96.82 268.53 99.32Q267.51 101.81 267.51 105.34Q267.51 108.76 268.53 111.28Q269.54 113.8 271.45 115.16Q273.36 116.51 276.01 116.51ZM296.03 121.3V89.38H302.39V121.3ZM295.9 84.75V78.41H302.52V84.75ZM320.45 121.3Q315.9 121.3 313.74 119.21Q311.58 117.11 311.58 112.64V81.9H317.94V112.2Q317.94 114.41 318.91 115.26Q319.87 116.1 321.86 116.1H326.4V121.3ZM306.73 94.58V89.38H326.4V94.58Z"/></svg>
